<svg xmlns="http://www.w3.org/2000/svg" viewBox="0 0 138.67764282226562 30.99999237060547" width="138.67764282226562" height="30.99999237060547">
<g transform="translate(32.148 28.317)"><path d="M1.0792 0L0 2.64355L0.381181 2.64355L0.618809 2.04455L1.79207 2.04455L2.0297 2.64355L2.41583 2.64355L1.33663 0L1.0792 0ZM0.742571 1.73267L1.20792 0.574257L1.66831 1.73267L0.747526 1.73267L0.742571 1.73267Z" fill="#ffffff"/></g>
<g transform="translate(35.871 28.317)"><path d="M0.356435 1.44554L1.63366 1.44554L1.63366 1.13365L0.356435 1.13365L0.356435 0.326733L1.74258 0.326733L1.74258 0L0.356435 0L0.242583 0L0 0L0 2.6386L0.242583 2.6386L0.356435 2.6386L1.75743 2.6386L1.75743 2.31187L0.356435 2.31187L0.356435 1.44554Z" fill="#ffffff"/></g>
<g transform="translate(38.763 28.277)"><path d="M1.57426 1.39604C1.5 1.33663 1.41584 1.28712 1.32178 1.25247C1.22772 1.21782 1.13862 1.17822 1.04456 1.14851C0.950498 1.11881 0.866336 1.08415 0.792078 1.04455C0.717821 1.00495 0.653468 0.960392 0.608913 0.905937C0.564359 0.851482 0.539615 0.777224 0.539615 0.688115C0.539615 0.579205 0.579218 0.490097 0.663376 0.425741C0.747535 0.361385 0.861392 0.331681 1 0.331681C1.11882 0.331681 1.21783 0.356433 1.31189 0.400987C1.401 0.445541 1.48514 0.514847 1.56435 0.608906L1.80693 0.366338C1.72278 0.257427 1.6089 0.168315 1.47029 0.0990079C1.33168 0.0346518 1.17823 0 1.00496 0C0.846545 0 0.707924 0.0297019 0.579212 0.0841571C0.45545 0.143563 0.356438 0.222773 0.28218 0.326733C0.207923 0.430693 0.17327 0.559407 0.17327 0.707921C0.17327 0.841584 0.198029 0.955441 0.242583 1.04455C0.287138 1.13366 0.351491 1.20297 0.425748 1.26237C0.500005 1.31683 0.584168 1.36138 0.678227 1.40098C0.772286 1.44059 0.861389 1.47029 0.950497 1.50495C1.03961 1.5396 1.12872 1.5693 1.20298 1.6089C1.27723 1.64851 1.34159 1.69801 1.38614 1.75742C1.4307 1.81682 1.45544 1.89603 1.45544 1.99504C1.45544 2.11385 1.40595 2.20791 1.31189 2.27722C1.21783 2.34653 1.08911 2.38118 0.935646 2.38118C0.782182 2.38118 0.643565 2.35148 0.529704 2.29207C0.420794 2.23266 0.321791 2.14355 0.242583 2.02474L0 2.26732C0.113861 2.41088 0.242577 2.52474 0.391091 2.599C0.539606 2.67325 0.717831 2.71286 0.925751 2.71286C1.19803 2.71286 1.41584 2.6485 1.5792 2.51484C1.74257 2.38118 1.82178 2.20296 1.82178 1.96534C1.82178 1.82672 1.79703 1.70791 1.75247 1.61881C1.70297 1.52475 1.64356 1.45049 1.56931 1.39108L1.57426 1.39604Z" fill="#ffffff"/></g>
<g transform="translate(41.668 28.317)"><path d="M0 0.326733L0.900974 0.326733L0.900974 2.6386L1.25741 2.6386L1.25741 0.326733L2.15344 0.326733L2.15344 0L0 0L0 0.326733Z" fill="#ffffff"/></g>
<g transform="translate(45.159 28.317)"><path d="M1.70792 1.10891L0.36139 1.10891L0.36139 0L0 0L0 2.6386L0.36139 2.6386L0.36139 1.43563L1.70792 1.43563L1.70792 2.6386L2.06435 2.6386L2.06435 0L1.70792 0L1.70792 1.10891Z" fill="#ffffff"/></g>
<g transform="translate(48.763 28.317)"><path d="M0.356435 1.44554L1.62871 1.44554L1.62871 1.13365L0.356435 1.13365L0.356435 0.326733L1.73762 0.326733L1.73762 0L0.356435 0L0.242568 0L0 0L0 2.6386L0.242568 2.6386L0.356435 2.6386L1.75741 2.6386L1.75741 2.31187L0.356435 2.31187L0.356435 1.44554Z" fill="#ffffff"/></g>
<g transform="translate(51.623 28.317)"><path d="M0 0.326733L0.896034 0.326733L0.896034 2.6386L1.25247 2.6386L1.25247 0.326733L2.1485 0.326733L2.1485 0L0 0L0 0.326733Z" fill="#ffffff"/></g>
<g transform="translate(55.113 28.317)"><path d="M0.356419 0L0 0L0 2.64355L0.356419 2.64355L0.356419 0Z" fill="#ffffff"/></g>
<g transform="translate(56.871 28.282)"><path d="M1.76237 2.28712C1.63861 2.34158 1.49504 2.36633 1.33168 2.36633C1.19307 2.36633 1.06435 2.34158 0.945542 2.29207C0.826731 2.24257 0.727724 2.17326 0.638615 2.0792C0.554457 1.9901 0.485138 1.88118 0.440584 1.75742C0.39603 1.63366 0.371285 1.49505 0.371285 1.35148C0.371285 1.20792 0.39603 1.0693 0.440584 0.945542C0.485138 0.82178 0.554457 0.712873 0.638615 0.623764C0.722773 0.534656 0.826731 0.460395 0.945542 0.41089C1.06435 0.361385 1.18811 0.336636 1.33168 0.336636C1.48514 0.336636 1.62375 0.36139 1.74256 0.415845C1.86137 0.470301 1.96533 0.544556 2.04949 0.638615L2.29701 0.391091C2.17325 0.26733 2.03465 0.17327 1.87623 0.103963C1.71782 0.0346566 1.53464 0 1.32672 0C1.1386 0 0.960384 0.0346566 0.797019 0.103963C0.633653 0.17327 0.495052 0.27228 0.376241 0.391091C0.257429 0.514853 0.163372 0.658415 0.0990155 0.82178C0.0346593 0.985146 0 1.16336 0 1.35643C0 1.5495 0.0346593 1.72277 0.0990155 1.88614C0.163372 2.0495 0.257429 2.19801 0.376241 2.32177C0.495052 2.44553 0.638608 2.54455 0.801974 2.61386C0.96534 2.68316 1.13861 2.71781 1.33168 2.71781C1.5396 2.71781 1.72276 2.68316 1.88613 2.6089C2.04949 2.53959 2.19306 2.44059 2.31682 2.31188L2.06929 2.0693C1.98514 2.16336 1.88118 2.23762 1.76237 2.29207L1.76237 2.28712Z" fill="#ffffff"/></g>
<g transform="translate(61.946 28.317)"><path d="M1.0792 0L0 2.64355L0.381181 2.64355L0.618809 2.04455L1.79207 2.04455L2.0297 2.64355L2.41583 2.64355L1.33663 0L1.0792 0ZM0.742571 1.73267L1.20792 0.574257L1.66831 1.73267L0.747526 1.73267L0.742571 1.73267Z" fill="#ffffff"/></g>
<g transform="translate(65.673 28.317)"><path d="M1.71781 1.95543L0.247524 0L0 0L0 2.6386L0.356435 2.6386L0.356435 0.678212L1.82673 2.6386L2.07425 2.6386L2.07425 0L1.71781 0L1.71781 1.95543Z" fill="#ffffff"/></g>
<g transform="translate(69.089 28.317)"><path d="M0 0.326733L0.896034 0.326733L0.896034 2.6386L1.25742 2.6386L1.25742 0.326733L2.1485 0.326733L2.1485 0L0 0L0 0.326733Z" fill="#ffffff"/></g>
<g transform="translate(72.578 28.317)"><path d="M0.356435 0L0 0L0 2.64355L0.356435 2.64355L0.356435 0Z" fill="#ffffff"/></g>
<g transform="translate(74.416 29.827)"><path d="M1.25247 0L0 0L0 0.321778L1.25247 0.321778L1.25247 0Z" fill="#ffffff"/></g>
<g transform="translate(76.797 28.317)"><path d="M1.0792 0L0 2.64355L0.381181 2.64355L0.618809 2.04455L1.79207 2.04455L2.0297 2.64355L2.41583 2.64355L1.33663 0L1.0792 0ZM0.742571 1.73267L1.20792 0.574257L1.66831 1.73267L0.747526 1.73267L0.742571 1.73267Z" fill="#ffffff"/></g>
<g transform="translate(80.228 28.272)"><path d="M1.29702 1.60395L2.20791 1.60395C2.19305 1.73761 2.16832 1.85643 2.11386 1.95543C2.0396 2.09405 1.93564 2.19801 1.80198 2.26732C1.66832 2.33662 1.50495 2.37127 1.32178 2.37127C1.13862 2.37127 0.975244 2.32672 0.836631 2.24256C0.693067 2.15345 0.58416 2.03464 0.500002 1.88613C0.415844 1.73266 0.376241 1.55939 0.376241 1.35642C0.376241 1.15346 0.415844 0.98514 0.500002 0.831676C0.58416 0.678211 0.698012 0.559399 0.846526 0.475241C0.99504 0.391083 1.16336 0.346532 1.35642 0.346532C1.51979 0.346532 1.66831 0.381183 1.80692 0.445539C1.94553 0.509896 2.05445 0.603953 2.13861 0.722765L2.38613 0.475241C2.26732 0.321776 2.11881 0.20792 1.94059 0.123762C1.76237 0.0445543 1.56929 0 1.35642 0C1.16336 0 0.985146 0.0346491 0.82178 0.103956C0.658414 0.173262 0.514853 0.267322 0.391091 0.391084C0.26733 0.514846 0.173262 0.658407 0.103956 0.821773C0.0346491 0.985138 0 1.16336 0 1.35148C0 1.53959 0.0346491 1.71781 0.103956 1.88613C0.173262 2.04949 0.267325 2.19801 0.386136 2.32177C0.504947 2.44553 0.648514 2.54454 0.806929 2.61385C0.970295 2.68316 1.14356 2.7178 1.32672 2.7178C1.57425 2.7178 1.79208 2.66335 1.98514 2.55939C2.17821 2.45543 2.32673 2.30197 2.43564 2.09405C2.54455 1.88613 2.599 1.6287 2.599 1.32178L2.599 1.26732L1.30693 1.26732L1.30693 1.59405L1.29702 1.60395Z" fill="#ffffff"/></g>
<g transform="translate(84.212 28.317)"><path d="M0.356435 0L0 0L0 2.64355L0.356435 2.64355L0.356435 0Z" fill="#ffffff"/></g>
<g transform="translate(86.108 28.317)"><path d="M1.71781 1.95543L0.247524 0L0 0L0 2.6386L0.356435 2.6386L0.356435 0.678212L1.82673 2.6386L2.07425 2.6386L2.07425 0L1.71781 0L1.71781 1.95543Z" fill="#ffffff"/></g>
<g transform="translate(89.594 28.272)"><path d="M1.29702 1.60395L2.20791 1.60395C2.19305 1.73761 2.1683 1.85643 2.11385 1.95543C2.03959 2.09405 1.93563 2.19801 1.80196 2.26732C1.6683 2.33662 1.50493 2.37127 1.32177 2.37127C1.1386 2.37127 0.975244 2.32672 0.836631 2.24256C0.693067 2.15345 0.584145 2.03464 0.499987 1.88613C0.415829 1.73266 0.376226 1.55939 0.376226 1.35642C0.376226 1.15346 0.415829 0.98514 0.499987 0.831676C0.584145 0.678211 0.698012 0.559399 0.846526 0.475241C0.99504 0.391083 1.16336 0.346532 1.35642 0.346532C1.51979 0.346532 1.66831 0.381183 1.80692 0.445539C1.94553 0.509896 2.05443 0.603953 2.13859 0.722765L2.38612 0.475241C2.2673 0.321776 2.11879 0.20792 1.94058 0.123762C1.76236 0.0445543 1.56929 0 1.35642 0C1.16336 0 0.985146 0.0346491 0.82178 0.103956C0.658414 0.173262 0.514838 0.267322 0.391076 0.391084C0.267315 0.514846 0.173262 0.658407 0.103956 0.821773C0.0346491 0.985138 0 1.16336 0 1.35148C0 1.53959 0.0346491 1.71781 0.103956 1.88613C0.173262 2.04949 0.267325 2.19801 0.386136 2.32177C0.504947 2.44553 0.648514 2.54454 0.806929 2.61385C0.970295 2.68316 1.14356 2.7178 1.32672 2.7178C1.57425 2.7178 1.79206 2.66335 1.98513 2.55939C2.1782 2.45543 2.32671 2.30197 2.43562 2.09405C2.54453 1.88613 2.599 1.6287 2.599 1.32178L2.599 1.26732L1.30692 1.26732L1.30692 1.59405L1.29702 1.60395Z" fill="#ffffff"/></g>
<g transform="translate(95.147 28.282)"><path d="M1.76237 2.28712C1.63861 2.34158 1.49504 2.36633 1.33168 2.36633C1.19307 2.36633 1.06434 2.34158 0.945527 2.29207C0.826716 2.24257 0.727709 2.17326 0.6386 2.0792C0.554442 1.9901 0.485154 1.88118 0.440599 1.75742C0.396045 1.63366 0.371285 1.49505 0.371285 1.35148C0.371285 1.20792 0.396045 1.0693 0.440599 0.945542C0.485154 0.82178 0.554442 0.712873 0.6386 0.623764C0.722758 0.534656 0.826716 0.460395 0.945527 0.41089C1.06434 0.361385 1.18811 0.336636 1.33168 0.336636C1.48514 0.336636 1.62376 0.36139 1.74258 0.415845C1.86139 0.470301 1.96534 0.544556 2.0495 0.638615L2.29703 0.391091C2.17326 0.26733 2.03463 0.17327 1.87622 0.103963C1.7178 0.0346566 1.53464 0 1.32672 0C1.1386 0 0.960384 0.0346566 0.797019 0.103963C0.633653 0.17327 0.495052 0.27228 0.376241 0.391091C0.257429 0.514853 0.163372 0.658415 0.0990155 0.82178C0.0346593 0.985146 0 1.16336 0 1.35643C0 1.5495 0.0346593 1.72277 0.0990155 1.88614C0.163372 2.0495 0.257429 2.19801 0.376241 2.32177C0.495052 2.44553 0.638608 2.54455 0.801974 2.61386C0.96534 2.68316 1.13861 2.71781 1.33168 2.71781C1.5396 2.71781 1.72276 2.68316 1.88613 2.6089C2.04949 2.53959 2.19306 2.44059 2.31682 2.31188L2.06929 2.0693C1.98514 2.16336 1.88118 2.23762 1.76237 2.29207L1.76237 2.28712Z" fill="#ffffff"/></g>
<g transform="translate(98.816 28.317)"><path d="M0.35645 0L0 0L0 2.6386L0.242568 2.6386L0.35645 2.6386L1.65843 2.6386L1.65843 2.31187L0.35645 2.31187L0.35645 0Z" fill="#ffffff"/></g>
<g transform="translate(101.831 28.317)"><path d="M0.356419 0L0 0L0 2.64355L0.356419 2.64355L0.356419 0Z" fill="#ffffff"/></g>
<g transform="translate(103.728 28.317)"><path d="M1.7178 1.95543L0.247524 0L0 0L0 2.6386L0.35642 2.6386L0.35642 0.678212L1.82673 2.6386L2.07425 2.6386L2.07425 0L1.7178 0L1.7178 1.95543Z" fill="#ffffff"/></g>
<g transform="translate(107.341 28.317)"><path d="M0.356419 0L0 0L0 2.64355L0.356419 2.64355L0.356419 0Z" fill="#ffffff"/></g>
<g transform="translate(109.100 28.282)"><path d="M1.76237 2.28712C1.63861 2.34158 1.49504 2.36633 1.33168 2.36633C1.19307 2.36633 1.06434 2.34158 0.945527 2.29207C0.826716 2.24257 0.727709 2.17326 0.6386 2.0792C0.554442 1.9901 0.485154 1.88118 0.440599 1.75742C0.396045 1.63366 0.371285 1.49505 0.371285 1.35148C0.371285 1.20792 0.396045 1.0693 0.440599 0.945542C0.485154 0.82178 0.554442 0.712873 0.6386 0.623764C0.722758 0.534656 0.826716 0.460395 0.945527 0.41089C1.06434 0.361385 1.18811 0.336636 1.33168 0.336636C1.48514 0.336636 1.62376 0.36139 1.74258 0.415845C1.86139 0.470301 1.96534 0.544556 2.0495 0.638615L2.29703 0.391091C2.17326 0.26733 2.03463 0.17327 1.87622 0.103963C1.7178 0.0346566 1.53464 0 1.32672 0C1.1386 0 0.960384 0.0346566 0.797019 0.103963C0.633653 0.17327 0.495052 0.27228 0.376241 0.391091C0.257429 0.514853 0.163372 0.658415 0.0990155 0.82178C0.0346593 0.985146 0 1.16336 0 1.35643C0 1.5495 0.0346593 1.72277 0.0990155 1.88614C0.163372 2.0495 0.257429 2.19801 0.376241 2.32177C0.495052 2.44553 0.638608 2.54455 0.801974 2.61386C0.96534 2.68316 1.13861 2.71781 1.33168 2.71781C1.5396 2.71781 1.72276 2.68316 1.88613 2.6089C2.04949 2.53959 2.19306 2.44059 2.31682 2.31188L2.06929 2.0693C1.98514 2.16336 1.88118 2.23762 1.76237 2.29207L1.76237 2.28712Z" fill="#ffffff"/></g>
<g transform="translate(32.346 0.792)"><path d="M4.35147 12.1386L17.0791 12.1386L17.0791 9.16827L4.35147 9.16827L4.35147 3.09899L18.2276 3.09899L18.2276 0L0 0L0 21.7821L18.4257 21.7821L18.4257 18.6831L4.35147 18.6831L4.35147 12.1386Z" fill="#ffffff"/></g>
<g transform="translate(55.674 0.792)"><path d="M15.0742 17.5098L22.7326 7.50986L22.7326 21.7821L27.084 21.7821L27.084 0L24.0692 0L13.5395 13.7574L3.01484 0L0 0L0 21.7821L4.34651 21.7821L4.34651 7.50986L12.0098 17.5098L15.0742 17.5098Z" fill="#ffffff"/></g>
<g transform="translate(85.989 0.792)"><path d="M11.2821 0L0 21.7821L4.59898 21.7821L6.72769 17.5445L18.7425 17.5445L20.8514 21.7821L25.5296 21.7821L14.3267 0L11.2871 0L11.2821 0ZM8.19798 14.5989L12.7574 5.51483L17.2771 14.5989L8.19798 14.5989Z" fill="#ffffff"/></g>
<g transform="translate(114.247 0.792)"><path d="M23.3761 6.58908C22.6731 5.2772 21.6781 4.11384 20.4157 3.13365C19.1534 2.1485 17.6534 1.37623 15.9603 0.826728C14.2623 0.277225 12.4009 0 10.4158 0L0 0L0 21.7821L10.495 21.7821C12.4504 21.7821 14.3019 21.5048 15.9999 20.9553C17.693 20.4058 19.188 19.6286 20.4355 18.6484C21.6831 17.6682 22.6731 16.4999 23.3761 15.1781C24.0791 13.8613 24.4306 12.4158 24.4306 10.891C24.4306 9.36629 24.0741 7.896 23.3761 6.58908ZM18.7425 14.9504C17.9306 16.1237 16.787 17.0494 15.3415 17.7029C13.9009 18.3563 12.2029 18.6831 10.3019 18.6831L4.35145 18.6831L4.35145 3.09899L10.3019 3.09899C12.1782 3.09899 13.8613 3.43068 15.3019 4.07919C16.7474 4.73265 17.9009 5.65344 18.7227 6.81185C19.5494 7.97521 19.9652 9.33659 19.9652 10.8564C19.9652 12.3762 19.5544 13.7722 18.7425 14.9455L18.7425 14.9504Z" fill="#ffffff"/></g>
<g transform="translate(0.000 0.000)"><path d="M17.688 19.2476C16.5197 19.3714 15.3465 19.4407 14.1682 19.4555C13.3811 19.4654 12.594 19.4555 11.8069 19.411C8.43561 19.2426 5.57919 18.0496 4.32177 14.6981C3.95048 13.708 3.76236 12.6288 3.76236 11.4556C3.76236 9.88131 4.08909 8.49518 4.7376 7.30211C5.99007 5.00014 7.96035 4.05955 10.4851 3.75757C12.9108 3.46549 15.3712 3.44074 17.8068 3.67341C19.6831 3.85163 21.2771 4.33183 22.6039 5.71796C22.886 6.01499 23.1385 6.34172 23.3662 6.67835L27.485 6.67835C26.9108 5.41598 26.1533 4.29222 25.193 3.32193C23.1831 1.29224 20.8118 0.47046 18.0098 0.193234C15.6831 -0.0394384 13.3316 -0.059241 10.9999 0.118976C8.02966 0.351648 5.43067 1.14867 3.30197 3.31698C2.26732 4.37143 1.46038 5.58925 0.876228 6.97538C0.292072 8.36151 0 9.8516 0 11.4506C0 13.0496 0.292072 14.5447 0.876228 15.9407C1.46038 17.3367 2.27721 18.5595 3.32176 19.6139C4.36631 20.6684 5.57918 21.4951 6.96532 22.0892C9.07422 22.9951 11.8267 23.0248 14.2425 23.005C14.688 23.005 15.1237 22.9951 15.5445 22.9902C19.0296 22.9654 22.6831 22.1882 25.2127 19.6288C26.2474 18.5842 27.0543 17.3664 27.6385 15.9704C27.6781 15.8763 27.7028 15.7823 27.7375 15.6882L23.7276 15.6882C22.4058 18.0743 20.3217 18.9605 17.688 19.2377L17.688 19.2476Z" fill="#ffffff"/></g>
<g transform="translate(22.480 8.084)"><path d="M3.14849 0C2.75741 1.5891 1.58415 2.75741 0 3.1485C1.5891 3.53959 2.75741 4.71285 3.14849 6.297C3.53958 4.71285 4.71285 3.53959 6.297 3.1485C4.71285 2.75741 3.53958 1.58415 3.14849 0Z" fill="#ffffff"/></g>
</svg>